<?xml version="1.0" encoding="UTF-8" standalone="no"?>
<svg
   xmlns:v="http://schemas.microsoft.com/visio/2003/SVGExtensions/"
   xmlns:dc="http://purl.org/dc/elements/1.1/"
   xmlns:cc="http://creativecommons.org/ns#"
   xmlns:rdf="http://www.w3.org/1999/02/22-rdf-syntax-ns#"
   xmlns:svg="http://www.w3.org/2000/svg"
   xmlns="http://www.w3.org/2000/svg"
   xmlns:xlink="http://www.w3.org/1999/xlink"
   xmlns:sodipodi="http://sodipodi.sourceforge.net/DTD/sodipodi-0.dtd"
   xmlns:inkscape="http://www.inkscape.org/namespaces/inkscape"
   width="5.51042in"
   height="3.51042in"
   viewBox="0 0 396.75 252.75"
   xml:space="preserve"
   color-interpolation-filters="sRGB"
   class="st3"
   version="1.1"
   id="svg59"
   sodipodi:docname="AllAbout_grad_c.svg"
   inkscape:version="1.0.1 (3bc2e813f5, 2020-09-07)"><metadata
   id="metadata65"><rdf:RDF><cc:Work
       rdf:about=""><dc:format>image/svg+xml</dc:format><dc:type
         rdf:resource="http://purl.org/dc/dcmitype/StillImage" /><dc:title /></cc:Work></rdf:RDF></metadata><defs
   id="defs63"><linearGradient
   inkscape:collect="always"
   id="linearGradient1023"><stop
     style="stop-color:#c4ff4c;stop-opacity:1"
     offset="0"
     id="stop1019" /><stop
     style="stop-color:#dddddd;stop-opacity:0;"
     offset="1"
     id="stop1021" /></linearGradient><linearGradient
   inkscape:collect="always"
   id="linearGradient973"><stop
     style="stop-color:#c4ff4c;stop-opacity:1"
     offset="0"
     id="stop969" /><stop
     style="stop-color:#dddddd;stop-opacity:0;"
     offset="1"
     id="stop971" /></linearGradient><linearGradient
   inkscape:collect="always"
   id="linearGradient872"><stop
     style="stop-color:#dddddd;stop-opacity:1;"
     offset="0"
     id="stop868" /><stop
     style="stop-color:#dddddd;stop-opacity:0;"
     offset="1"
     id="stop870" /></linearGradient>
		
		
		
		
		
	
			
			
		
			
			
			
			
		
			
			
			
			
			
			
		
				
				
			<linearGradient
   inkscape:collect="always"
   xlink:href="#linearGradient872"
   id="linearGradient884"
   x1="5.242187"
   y1="235.32776"
   x2="6.2148199"
   y2="252.32393"
   gradientUnits="userSpaceOnUse" /><linearGradient
   inkscape:collect="always"
   xlink:href="#linearGradient1023"
   id="linearGradient967"
   x1="415.44849"
   y1="165.13007"
   x2="415.16513"
   y2="136.93314"
   gradientUnits="userSpaceOnUse"
   gradientTransform="translate(-106.32845,6.6720836)" /><linearGradient
   inkscape:collect="always"
   xlink:href="#linearGradient973"
   id="linearGradient967-3"
   x1="415.44849"
   y1="165.13007"
   x2="415.89917"
   y2="135.34837"
   gradientUnits="userSpaceOnUse"
   gradientTransform="matrix(0.99073267,0,0,1.0005899,-131.75443,6.6622644)" /></defs><sodipodi:namedview
   pagecolor="#ffffff"
   bordercolor="#666666"
   borderopacity="1"
   objecttolerance="10"
   gridtolerance="10"
   guidetolerance="10"
   inkscape:pageopacity="0"
   inkscape:pageshadow="2"
   inkscape:window-width="640"
   inkscape:window-height="480"
   id="namedview61"
   showgrid="false"
   inkscape:zoom="2.1810068"
   inkscape:cx="441.01491"
   inkscape:cy="109.40777"
   inkscape:current-layer="svg59"
   inkscape:document-rotation="0" />
	<v:documentProperties
   v:langID="1033"
   v:viewMarkup="false" />

	<rect
   x="0.375"
   y="0.375"
   width="396"
   height="252"
   class="st1"
   id="rect8"
   style="fill-opacity:1;stroke:none;stroke-width:0.999749;stroke-miterlimit:4;stroke-dasharray:none;stroke-opacity:1;fill:#004758" /><style
   type="text/css"
   id="style2">
	<![CDATA[
		.st1 {fill:#bbbb00;stroke:none;stroke-linecap:round;stroke-linejoin:round;stroke-width:0.75}
		.st2 {fill:#000000;stroke:none;stroke-linecap:round;stroke-linejoin:round;stroke-width:0.75}
		.st3 {fill:none;fill-rule:evenodd;font-size:12px;overflow:visible;stroke-linecap:square;stroke-miterlimit:3}
	]]>
	</style><g
   id="shape36-17"
   v:mID="36"
   v:groupContext="shape"
   transform="translate(273.4175,-35.682052)"
   style="fill:#c4ff4c;fill-opacity:1">
				<title
   id="title46">Sheet.36</title>
				<path
   d="m 32.76,251.5 c -1.48,-1.58 -2.38,-3.17 -2.84,-4.76 -0.45,-1.7 -0.68,-3.4 -0.68,-5.21 v -36.84 h 12.7 v 35.36 0 c 0,3.52 0.45,7.37 1.36,11.45 z M 12.58,237.9 c 0,1.59 0.34,2.72 0.91,3.74 0.57,1.02 1.7,1.48 3.29,1.48 0.56,0 1.13,-0.12 1.7,-0.23 0.56,-0.11 1.24,-0.23 2.15,-0.34 0.68,-0.11 1.36,0.11 1.81,0.45 0.68,0.34 1.25,0.8 1.82,1.48 0.45,0.56 1.02,1.13 1.36,1.92 0.56,0.68 1.02,1.36 1.36,2.16 -2.95,1.58 -5.67,2.6 -7.82,3.28 -2.27,0.57 -4.42,0.91 -6.58,0.91 -1.59,0 -3.06,-0.34 -4.65,-0.91 C 6.46,251.16 5.1,250.26 3.85,249.12 2.72,247.88 1.81,246.4 1.13,244.59 0.34,242.78 0,240.62 0,238.13 v -33.44 h 12.58 z"
   class="st2"
   id="path48"
   style="fill:#c4ff4c;fill-opacity:1" />
			</g>

	<g
   id="shape38-4"
   v:mID="38"
   v:groupContext="shape"
   style="fill:#dddddd;fill-opacity:1"
   transform="translate(209.489,-95.934)">
				<title
   id="title13">Sheet.38</title>
				<path
   d="m 17.57,238.35 -4.76,14.4 H 0 l 23.69,-65.86 h 12.69 l 23.58,65.86 H 46.59 l -16.33,-48.97 -0.68,-3.4 -0.9,3.52 -7.71,23.46 -1.02,1.81 1.36,-0.11 h 6.91 v 0 c 1.25,0 2.5,0.23 3.4,0.91 1.02,0.56 1.82,1.36 2.5,2.26 0.79,0.91 1.36,1.93 1.81,3.06 0.57,1.14 1.02,2.16 1.36,3.06 z"
   class="st2"
   id="path15"
   style="fill:#dddddd;fill-opacity:1" />
			</g><g
   id="shape33-11"
   v:mID="33"
   v:groupContext="shape"
   transform="translate(94.1015,-36.92892)"
   style="fill:#c4ff4c;fill-opacity:1">
				<title
   id="title31">Sheet.33</title>
				<path
   d="m 17.57,238.35 -4.76,14.4 H 0 l 23.69,-65.86 h 12.69 l 23.69,65.86 H 46.59 l -16.33,-49.08 -0.68,-3.29 -0.79,3.52 -7.71,23.46 -1.13,1.81 1.36,-0.11 h 6.91 v 0 c 1.36,0 2.5,0.23 3.4,0.91 1.02,0.56 1.82,1.36 2.61,2.26 0.68,0.91 1.25,1.93 1.81,3.06 0.46,1.02 0.91,2.04 1.25,3.06 z"
   class="st2"
   id="path33"
   style="fill:#c4ff4c;fill-opacity:1" />
			</g><g
   id="shape34-13"
   v:mID="34"
   v:groupContext="shape"
   transform="translate(163.5836,-35.5687)"
   style="fill:#c4ff4c;fill-opacity:1">
				<title
   id="title36">Sheet.34</title>
				<path
   d="m 23.24,212.85 c -1.02,0.11 -1.93,-0.11 -2.61,-0.45 -0.68,-0.46 -1.36,-0.91 -1.93,-1.48 -0.56,-0.68 -1.02,-1.47 -1.47,-2.26 -0.57,-0.91 -1.02,-1.82 -1.36,-2.72 1.7,-0.8 3.4,-1.36 5.21,-1.7 1.82,-0.34 3.52,-0.57 5.1,-0.57 2.84,0 5.44,0.68 7.82,2.04 2.27,1.36 4.2,3.06 5.79,5.21 1.58,2.16 2.83,4.54 3.74,7.26 0.9,2.72 1.36,5.44 1.36,8.16 0,3.63 -0.68,7.14 -1.82,10.43 -1.13,3.17 -2.72,6.01 -4.99,8.39 -2.15,2.38 -4.76,4.19 -7.82,5.66 -3.06,1.25 -6.57,1.93 -10.31,1.93 -3.4,0 -6.57,-0.34 -9.75,-1.13 C 7.03,250.82 3.63,249.58 0,247.65 V 182.7 h 12.58 v 59.85 0 c 1.36,0.34 2.61,0.57 3.74,0.68 1.14,0.11 2.38,0.23 3.63,0.23 1.7,0 3.29,-0.46 4.65,-1.25 1.47,-0.91 2.72,-2.04 3.62,-3.63 1.02,-1.47 1.82,-3.29 2.27,-5.44 0.57,-2.04 0.79,-4.42 0.79,-6.8 0,-1.47 -0.11,-3.06 -0.45,-4.53 -0.23,-1.71 -0.68,-3.18 -1.36,-4.54 -0.57,-1.25 -1.36,-2.38 -2.38,-3.17 -1.02,-0.91 -2.38,-1.25 -3.85,-1.25 z"
   class="st2"
   id="path38"
   style="fill:#c4ff4c;fill-opacity:1" />
			</g><g
   id="shape35-15"
   v:mID="35"
   v:groupContext="shape"
   transform="translate(215.2705,-35.682052)"
   style="fill:#c4ff4c;fill-opacity:1">
				<title
   id="title41">Sheet.35</title>
				<path
   d="m 48.63,228.04 c 0,3.85 -0.8,7.37 -2.27,10.43 -1.36,3.06 -3.17,5.55 -5.44,7.71 -2.27,2.15 -4.88,3.74 -7.82,4.87 -2.95,1.13 -5.9,1.7 -8.84,1.7 -3.18,0 -6.24,-0.57 -9.18,-1.7 C 12.13,250.03 9.52,248.44 7.37,246.4 5.1,244.25 3.29,241.64 1.93,238.58 0.68,235.52 0,232.01 0,228.04 c 0,-4.19 0.68,-7.94 2.27,-11 1.58,-3.17 3.51,-5.66 5.89,-7.7 2.38,-1.93 4.99,-3.4 7.82,-4.42 2.95,-1.02 5.67,-1.48 8.28,-1.48 3.62,0 6.91,0.68 9.86,1.82 3.06,1.24 5.55,2.94 7.71,5.1 2.15,2.15 3.74,4.76 4.98,7.82 1.14,2.94 1.82,6.23 1.82,9.86 z m -24.37,15.42 c 1.81,0 3.28,-0.34 4.64,-1.14 1.36,-0.91 2.5,-2.04 3.4,-3.4 0.91,-1.36 1.59,-3.06 2.04,-4.87 0.46,-1.93 0.68,-3.86 0.68,-6.01 0,-2.15 -0.22,-4.08 -0.68,-5.89 -0.45,-1.93 -1.13,-3.52 -2.04,-4.88 -0.9,-1.36 -2.04,-2.49 -3.4,-3.29 -1.36,-0.79 -2.83,-1.24 -4.64,-1.24 -1.7,0 -3.29,0.45 -4.65,1.24 -1.36,0.8 -2.49,1.93 -3.4,3.29 -0.91,1.36 -1.59,2.95 -2.04,4.88 -0.57,1.81 -0.79,3.74 -0.79,5.89 0,2.27 0.22,4.42 0.79,6.23 0.45,1.93 1.25,3.52 2.15,4.88 0.91,1.36 2.04,2.38 3.4,3.17 1.36,0.8 2.95,1.14 4.54,1.14 z"
   class="st2"
   id="path43"
   style="fill:#c4ff4c;fill-opacity:1" />
			</g><g
   id="shape37-19"
   v:mID="37"
   v:groupContext="shape"
   transform="translate(324.9905,-35.682052)"
   style="fill:#c4ff4c;fill-opacity:1">
				<title
   id="title51">Sheet.37</title>
				<path
   d="M 7.48,213.64 H 0 v -7.14 l 7.48,-1.81 v -11.22 l 12.02,-3.86 v 43.98 0 c 0,3.06 0.56,5.44 1.81,7.26 1.36,1.7 3.06,2.49 5.21,2.49 0.8,0 1.82,-0.11 2.95,-0.22 1.13,-0.23 2.49,-0.57 4.08,-1.14 l 2.61,8.28 c -2.38,0.79 -4.31,1.36 -6.12,1.81 -1.7,0.45 -3.29,0.68 -4.76,0.68 -5.78,0 -10.2,-1.7 -13.27,-4.99 -3.06,-3.17 -4.53,-7.93 -4.53,-14.17 z m 24.14,0 c -1.36,0 -2.49,-0.34 -3.51,-0.79 -1.02,-0.68 -1.81,-1.36 -2.61,-2.27 -0.68,-0.79 -1.36,-1.7 -1.81,-2.72 -0.45,-1.13 -0.91,-2.15 -1.13,-3.17 H 35.7 v 8.95 z"
   class="st2"
   id="path53"
   style="fill:#c4ff4c;fill-opacity:1" />
			</g>
<g
   id="shape40-8"
   v:mID="40"
   v:groupContext="shape"
   transform="matrix(1,0,0,1.4627582,273.4171,-196.29686)"
   style="mix-blend-mode:normal;fill:#dddddd;fill-opacity:1">
				<title
   id="title23"
   style="fill:url(#linearGradient884);fill-opacity:1">Sheet.40</title>
				<path
   d="M 12.58,252.75 H 0 v -68.69 h 12.58 z"
   class="st2"
   id="path25"
   style="fill:#dddddd;fill-opacity:1" />
			</g><path
   d="m 315.31554,199.1553 h -12.69 V 72.909188 h 12.69 z"
   class="st2"
   id="path20"
   style="mix-blend-mode:normal;fill:#dddddd;fill-opacity:1" /><path
   d="m 315.33074,199.1553 h -12.69 V 72.909182 h 12.69 z"
   class="st2"
   id="path20-7"
   style="mix-blend-mode:normal;fill:url(#linearGradient967);fill-opacity:1;stroke:none;stroke-width:0.749999;stroke-linecap:round;stroke-linejoin:round" /><path
   d="M 285.9971,199.25944 H 273.4247 V 72.938414 h 12.5724 z"
   class="st2"
   id="path20-7-9"
   style="mix-blend-mode:normal;fill:url(#linearGradient967-3);fill-opacity:1;stroke:none;stroke-width:0.746736;stroke-linecap:round;stroke-linejoin:round" /></svg>
