<?xml version="1.0" encoding="UTF-8" standalone="no"?>
<svg
   xmlns:v="http://schemas.microsoft.com/visio/2003/SVGExtensions/"
   xmlns:dc="http://purl.org/dc/elements/1.1/"
   xmlns:cc="http://creativecommons.org/ns#"
   xmlns:rdf="http://www.w3.org/1999/02/22-rdf-syntax-ns#"
   xmlns:svg="http://www.w3.org/2000/svg"
   xmlns="http://www.w3.org/2000/svg"
   xmlns:xlink="http://www.w3.org/1999/xlink"
   xmlns:sodipodi="http://sodipodi.sourceforge.net/DTD/sodipodi-0.dtd"
   xmlns:inkscape="http://www.inkscape.org/namespaces/inkscape"
   width="5.51042in"
   height="3.51042in"
   viewBox="0 0 396.75 252.75"
   xml:space="preserve"
   color-interpolation-filters="sRGB"
   class="st3"
   version="1.1"
   id="svg59"
   sodipodi:docname="favicon.svg"
   inkscape:version="1.0.1 (3bc2e813f5, 2020-09-07)"><metadata
   id="metadata65"><rdf:RDF><cc:Work
       rdf:about=""><dc:format>image/svg+xml</dc:format><dc:type
         rdf:resource="http://purl.org/dc/dcmitype/StillImage" /><dc:title></dc:title></cc:Work></rdf:RDF></metadata><defs
   id="defs63"><linearGradient
   inkscape:collect="always"
   id="linearGradient872"><stop
     style="stop-color:#dddddd;stop-opacity:1;"
     offset="0"
     id="stop868" /><stop
     style="stop-color:#dddddd;stop-opacity:0;"
     offset="1"
     id="stop870" /></linearGradient>
		
		
		
		
		
	
			
			
		
			
			
			
			
		
			
			
			
			
			
			
		
				
				
			<linearGradient
   inkscape:collect="always"
   xlink:href="#linearGradient872"
   id="linearGradient884"
   x1="5.242187"
   y1="235.32776"
   x2="6.2148199"
   y2="252.32393"
   gradientUnits="userSpaceOnUse" /></defs><sodipodi:namedview
   pagecolor="#ffffff"
   bordercolor="#666666"
   borderopacity="1"
   objecttolerance="10"
   gridtolerance="10"
   guidetolerance="10"
   inkscape:pageopacity="0"
   inkscape:pageshadow="2"
   inkscape:window-width="640"
   inkscape:window-height="480"
   id="namedview61"
   showgrid="false"
   inkscape:zoom="2"
   inkscape:cx="357.26562"
   inkscape:cy="183.3172"
   inkscape:current-layer="svg59"
   inkscape:document-rotation="0" />
	<v:documentProperties
   v:langID="1033"
   v:viewMarkup="false" />

	<rect
   x="0.375"
   y="-70.712631"
   width="396"
   height="395.99969"
   class="st1"
   id="rect8"
   style="fill:#004758;fill-opacity:1;stroke:none;stroke-width:1.25325;stroke-miterlimit:4;stroke-dasharray:none;stroke-opacity:1"
   inkscape:export-xdpi="5.8200002"
   inkscape:export-ydpi="5.8200002" /><style
   type="text/css"
   id="style2">
	<![CDATA[
		.st1 {fill:#bbbb00;stroke:none;stroke-linecap:round;stroke-linejoin:round;stroke-width:0.75}
		.st2 {fill:#000000;stroke:none;stroke-linecap:round;stroke-linejoin:round;stroke-width:0.75}
		.st3 {fill:none;fill-rule:evenodd;font-size:12px;overflow:visible;stroke-linecap:square;stroke-miterlimit:3}
	]]>
	</style>

	
<g
   id="shape33-11-7"
   v:mID="33"
   v:groupContext="shape"
   transform="matrix(3.4970624,0,0,3.503478,20.77255,-667.92635)"
   style="fill:#dddddd;fill-opacity:1"
   inkscape:export-xdpi="5.8200002"
   inkscape:export-ydpi="5.8200002"><title
     id="title31-6">Sheet.33</title><path
     d="m 17.57,238.35 -4.76,14.4 H 0 l 23.69,-65.86 h 12.69 l 23.69,65.86 H 46.59 l -16.33,-49.08 -0.68,-3.29 -0.79,3.52 -7.71,23.46 -1.13,1.81 1.36,-0.11 h 6.91 v 0 c 1.36,0 2.5,0.23 3.4,0.91 1.02,0.56 1.82,1.36 2.61,2.26 0.68,0.91 1.25,1.93 1.81,3.06 0.46,1.02 0.91,2.04 1.25,3.06 z"
     class="st2"
     id="path33-4"
     style="fill:#dddddd;fill-opacity:1" /></g><g
   id="shape33-11"
   v:mID="33"
   v:groupContext="shape"
   transform="matrix(3.4970624,0,0,3.503478,165.90891,-617.76826)"
   style="fill:#c4ff4c;fill-opacity:1"
   inkscape:export-xdpi="5.8200002"
   inkscape:export-ydpi="5.8200002">
				<title
   id="title31">Sheet.33</title>
				<path
   d="m 17.57,238.35 -4.76,14.4 H 0 l 23.69,-65.86 h 12.69 l 23.69,65.86 H 46.59 l -16.33,-49.08 -0.68,-3.29 -0.79,3.52 -7.71,23.46 -1.13,1.81 1.36,-0.11 h 6.91 v 0 c 1.36,0 2.5,0.23 3.4,0.91 1.02,0.56 1.82,1.36 2.61,2.26 0.68,0.91 1.25,1.93 1.81,3.06 0.46,1.02 0.91,2.04 1.25,3.06 z"
   class="st2"
   id="path33"
   style="fill:#c4ff4c;fill-opacity:1" />
			</g></svg>
